<svg width="90" height="90" viewBox="0 0 90 90" fill="none" xmlns="http://www.w3.org/2000/svg">
<path d="M44.8047 0.0996094C56.6608 0.099675 68.0314 4.8099 76.415 13.1934C84.7986 21.5771 89.5088 32.9484 89.5088 44.8047C89.5086 69.494 69.494 89.5087 44.8047 89.5088C20.1152 89.5088 0.0997702 69.4941 0.0996094 44.8047C0.0996094 20.1151 20.1151 0.0996094 44.8047 0.0996094ZM36.5674 25.543C35.5046 24.8736 34.1622 24.8322 33.0605 25.4355C31.9586 26.0394 31.271 27.1935 31.2637 28.4502V61.1572C31.2489 62.4444 31.9496 63.633 33.083 64.2432C34.2154 64.853 35.592 64.7845 36.6582 64.0654L62.7793 47.7568L62.7803 47.7559C63.7863 47.1115 64.3954 45.9994 64.3955 44.8047C64.3955 43.6099 63.7865 42.4968 62.7803 41.8525H62.7793L36.5684 25.543H36.5674Z" fill="white" stroke="black" stroke-width="0.2"/>
</svg>
